<svg width="72" height="72" viewBox="0 0 72 72" fill="none" xmlns="http://www.w3.org/2000/svg">
<g filter="url(#filter0_d_1193_55532)">
<rect x="11" y="11" width="42" height="42" rx="4" fill="white"/>
<rect x="11" y="11" width="42" height="42" rx="4" stroke="#F2B304"/>
</g>
<g clip-path="url(#clip0_1193_55532)">
<path d="M39.95 41C37.8667 41 35.8083 40.546 33.775 39.638C31.7417 38.73 29.8917 37.4423 28.225 35.775C26.5583 34.1083 25.271 32.2583 24.363 30.225C23.455 28.1917 23.0007 26.1333 23 24.05C23 23.75 23.1 23.5 23.3 23.3C23.5 23.1 23.75 23 24.05 23H28.1C28.3333 23 28.5417 23.0793 28.725 23.238C28.9083 23.3967 29.0167 23.584 29.05 23.8L29.7 27.3C29.7333 27.5667 29.725 27.7917 29.675 27.975C29.625 28.1583 29.5333 28.3167 29.4 28.45L26.975 30.9C27.3083 31.5167 27.704 32.1123 28.162 32.687C28.62 33.2617 29.1243 33.816 29.675 34.35C30.1917 34.8667 30.7333 35.346 31.3 35.788C31.8667 36.23 32.4667 36.634 33.1 37L35.45 34.65C35.6 34.5 35.796 34.3877 36.038 34.313C36.28 34.2383 36.5173 34.2173 36.75 34.25L40.2 34.95C40.4333 35.0167 40.625 35.1377 40.775 35.313C40.925 35.4883 41 35.684 41 35.9V39.95C41 40.25 40.9 40.5 40.7 40.7C40.5 40.9 40.25 41 39.95 41Z" fill="#FFBB00"/>
</g>
<defs>
<filter id="filter0_d_1193_55532" x="0.5" y="0.5" width="71" height="71" filterUnits="userSpaceOnUse" color-interpolation-filters="sRGB">
<feFlood flood-opacity="0" result="BackgroundImageFix"/>
<feColorMatrix in="SourceAlpha" type="matrix" values="0 0 0 0 0 0 0 0 0 0 0 0 0 0 0 0 0 0 127 0" result="hardAlpha"/>
<feOffset dx="4" dy="4"/>
<feGaussianBlur stdDeviation="7"/>
<feComposite in2="hardAlpha" operator="out"/>
<feColorMatrix type="matrix" values="0 0 0 0 0 0 0 0 0 0 0 0 0 0 0 0 0 0 0.06 0"/>
<feBlend mode="normal" in2="BackgroundImageFix" result="effect1_dropShadow_1193_55532"/>
<feBlend mode="normal" in="SourceGraphic" in2="effect1_dropShadow_1193_55532" result="shape"/>
</filter>
<clipPath id="clip0_1193_55532">
<rect width="24" height="24" fill="white" transform="translate(20 20)"/>
</clipPath>
</defs>
</svg>
