<svg width="19" height="12" viewBox="0 0 19 12" fill="none" xmlns="http://www.w3.org/2000/svg">
<path opacity="0.6" fill-rule="evenodd" clip-rule="evenodd" d="M12.7071 5.29289C13.0976 5.68342 13.0976 6.31658 12.7071 6.70711L7.70711 11.7071C7.31658 12.0976 6.68342 12.0976 6.29289 11.7071C5.90237 11.3166 5.90237 10.6834 6.29289 10.2929L10.5858 6L6.29289 1.70711C5.90237 1.31658 5.90237 0.683417 6.29289 0.292893C6.68342 -0.0976314 7.31658 -0.0976313 7.70711 0.292893L12.7071 5.29289Z" fill="#263238"/>
<path opacity="0.4" fill-rule="evenodd" clip-rule="evenodd" d="M6.70711 5.29289C7.09763 5.68342 7.09763 6.31658 6.70711 6.70711L1.70711 11.7071C1.31658 12.0976 0.683417 12.0976 0.292893 11.7071C-0.097631 11.3166 -0.097631 10.6834 0.292893 10.2929L4.58579 6L0.292894 1.70711C-0.0976306 1.31658 -0.0976305 0.683417 0.292894 0.292893C0.683418 -0.0976314 1.31658 -0.0976313 1.70711 0.292893L6.70711 5.29289Z" fill="#263238"/>
<path fill-rule="evenodd" clip-rule="evenodd" d="M18.7071 5.29289C19.0976 5.68342 19.0976 6.31658 18.7071 6.70711L13.7071 11.7071C13.3166 12.0976 12.6834 12.0976 12.2929 11.7071C11.9024 11.3166 11.9024 10.6834 12.2929 10.2929L16.5858 6L12.2929 1.70711C11.9024 1.31658 11.9024 0.683417 12.2929 0.292893C12.6834 -0.0976314 13.3166 -0.0976313 13.7071 0.292893L18.7071 5.29289Z" fill="#263238"/>
</svg>
